<svg width="72" height="72" viewBox="0 0 72 72" fill="none" xmlns="http://www.w3.org/2000/svg">
<path fill-rule="evenodd" clip-rule="evenodd" d="M36 60C42.3652 60 48.4697 57.4714 52.9706 52.9706C57.4714 48.4697 60 42.3652 60 36C60 29.6348 57.4714 23.5303 52.9706 19.0294C48.4697 14.5286 42.3652 12 36 12C29.6348 12 23.5303 14.5286 19.0294 19.0294C14.5286 23.5303 12 29.6348 12 36C12 42.3652 14.5286 48.4697 19.0294 52.9706C23.5303 57.4714 29.6348 60 36 60ZM34.665 27.504C34.2132 27.2026 33.688 27.0294 33.1455 27.0031C32.6031 26.9767 32.0636 27.0981 31.5847 27.3544C31.1058 27.6106 30.7055 27.992 30.4264 28.458C30.1473 28.9239 29.9999 29.4569 30 30V42C29.9999 42.5431 30.1473 43.0761 30.4264 43.542C30.7055 44.008 31.1058 44.3894 31.5847 44.6456C32.0636 44.9019 32.6031 45.0233 33.1455 44.9969C33.688 44.9706 34.2132 44.7974 34.665 44.496L43.665 38.496C44.0759 38.222 44.4128 37.8509 44.6458 37.4155C44.8788 36.98 45.0007 36.4938 45.0007 36C45.0007 35.5062 44.8788 35.02 44.6458 34.5845C44.4128 34.1491 44.0759 33.778 43.665 33.504L34.665 27.504Z" fill="#F8F9FC"/>
</svg>
