<svg width="25" height="25" viewBox="0 0 25 25" fill="none" xmlns="http://www.w3.org/2000/svg">
<path d="M12.375 6.65534C13.543 5.87934 15.129 5.40234 16.875 5.40234C18.622 5.40234 20.207 5.87934 21.375 6.65534V19.6553C20.207 18.8793 18.622 18.4023 16.875 18.4023C15.129 18.4023 13.543 18.8793 12.375 19.6553M12.375 6.65534V19.6553V6.65534ZM12.375 6.65534C11.207 5.87934 9.621 5.40234 7.875 5.40234C6.129 5.40234 4.543 5.87934 3.375 6.65534V19.6553C4.543 18.8793 6.129 18.4023 7.875 18.4023C9.621 18.4023 11.207 18.8793 12.375 19.6553V6.65534Z" stroke="white" stroke-width="2" stroke-linecap="round" stroke-linejoin="round"/>
</svg>
