<svg width="65" height="33" viewBox="0 0 65 33" fill="none" xmlns="http://www.w3.org/2000/svg">
<path d="M28.875 11.4023V7.40234V11.4023ZM36.875 11.4023V7.40234V11.4023ZM27.875 15.4023H37.875H27.875ZM25.875 25.4023H39.875C40.4054 25.4023 40.9141 25.1916 41.2892 24.8166C41.6643 24.4415 41.875 23.9328 41.875 23.4023V11.4023C41.875 10.8719 41.6643 10.3632 41.2892 9.98813C40.9141 9.61306 40.4054 9.40234 39.875 9.40234H25.875C25.3446 9.40234 24.8359 9.61306 24.4608 9.98813C24.0857 10.3632 23.875 10.8719 23.875 11.4023V23.4023C23.875 23.9328 24.0857 24.4415 24.4608 24.8166C24.8359 25.1916 25.3446 25.4023 25.875 25.4023Z" stroke="white" stroke-width="2" stroke-linecap="round" stroke-linejoin="round"/>
</svg>
