<svg width="25" height="25" viewBox="0 0 25 25" fill="none" xmlns="http://www.w3.org/2000/svg">
<path d="M17.625 20.4023H22.625V18.4023C22.625 17.7789 22.4307 17.1709 22.0691 16.663C21.7076 16.155 21.1968 15.7723 20.6077 15.5681C20.0187 15.3639 19.3806 15.3482 18.7823 15.5234C18.1839 15.6985 17.655 16.0557 17.269 16.5453M17.625 20.4023L17.269 16.5453M17.625 20.4023H7.625M17.625 20.4023V18.4023C17.625 17.7463 17.499 17.1193 17.269 16.5453M17.269 16.5453C16.8976 15.6173 16.2568 14.8218 15.429 14.2615C14.6012 13.7011 13.6246 13.4016 12.625 13.4016C11.6254 13.4016 10.6488 13.7011 9.821 14.2615C8.99325 14.8218 8.35236 15.6173 7.981 16.5453M7.625 20.4023H2.625V18.4023C2.62505 17.7789 2.81934 17.1709 3.18086 16.663C3.54239 16.155 4.05319 15.7723 4.64225 15.5681C5.23132 15.3639 5.86938 15.3482 6.46774 15.5234C7.0661 15.6985 7.59503 16.0557 7.981 16.5453M7.625 20.4023L7.981 16.5453M7.625 20.4023V18.4023C7.625 17.7463 7.751 17.1193 7.981 16.5453M15.625 7.40234C15.625 8.19799 15.3089 8.96106 14.7463 9.52366C14.1837 10.0863 13.4206 10.4023 12.625 10.4023C11.8294 10.4023 11.0663 10.0863 10.5037 9.52366C9.94107 8.96106 9.625 8.19799 9.625 7.40234C9.625 6.60669 9.94107 5.84363 10.5037 5.28102C11.0663 4.71841 11.8294 4.40234 12.625 4.40234C13.4206 4.40234 14.1837 4.71841 14.7463 5.28102C15.3089 5.84363 15.625 6.60669 15.625 7.40234ZM21.625 10.4023C21.625 10.9328 21.4143 11.4415 21.0392 11.8166C20.6641 12.1916 20.1554 12.4023 19.625 12.4023C19.0946 12.4023 18.5859 12.1916 18.2108 11.8166C17.8357 11.4415 17.625 10.9328 17.625 10.4023C17.625 9.87191 17.8357 9.3632 18.2108 8.98813C18.5859 8.61306 19.0946 8.40234 19.625 8.40234C20.1554 8.40234 20.6641 8.61306 21.0392 8.98813C21.4143 9.3632 21.625 9.87191 21.625 10.4023ZM7.625 10.4023C7.625 10.9328 7.41429 11.4415 7.03921 11.8166C6.66414 12.1916 6.15543 12.4023 5.625 12.4023C5.09457 12.4023 4.58586 12.1916 4.21079 11.8166C3.83571 11.4415 3.625 10.9328 3.625 10.4023C3.625 9.87191 3.83571 9.3632 4.21079 8.98813C4.58586 8.61306 5.09457 8.40234 5.625 8.40234C6.15543 8.40234 6.66414 8.61306 7.03921 8.98813C7.41429 9.3632 7.625 9.87191 7.625 10.4023Z" stroke="white" stroke-width="2" stroke-linecap="round" stroke-linejoin="round"/>
</svg>
