<svg width="48" height="48" viewBox="0 0 48 48" fill="none" xmlns="http://www.w3.org/2000/svg">
<rect x="8" y="8" width="32" height="32" rx="8" fill="white"/>
<path d="M31.9932 34.088H28.5594L27.3494 32.8781C27.2412 32.9592 27.1331 33.0335 27.0249 33.1011C26.3016 33.5676 25.4837 33.9123 24.6117 34.088C24.6117 34.088 24.5915 34.0948 24.5847 34.0948C24.1251 34.1894 23.6451 34.2368 23.1584 34.2368C21.0427 34.2368 19.1432 33.3242 17.8386 31.8641C16.6895 30.5933 16 28.9237 16 27.0783C16 26.5916 16.0473 26.1117 16.142 25.652L18.4875 27.9976C18.6498 28.8155 19.0148 29.5591 19.5353 30.1607C20.218 30.9719 21.1643 31.5464 22.2459 31.756C22.5365 31.8168 22.8475 31.8439 23.1584 31.8439C23.9155 31.8439 24.632 31.6681 25.2674 31.3436C25.3891 31.2828 25.504 31.222 25.6189 31.1476C26.1327 30.8502 26.5856 30.4379 26.9371 29.9647C26.9911 29.9038 27.0384 29.843 27.079 29.7822C27.1669 29.6605 27.2412 29.5321 27.3088 29.4036C27.6401 28.8358 27.8428 28.1869 27.9037 27.4974C27.9172 27.396 27.9172 27.2946 27.9172 27.1865C27.924 27.1527 27.924 27.1121 27.924 27.0783C27.924 25.625 27.275 24.3204 26.2408 23.4552C25.4161 22.7387 24.3414 22.3128 23.1584 22.3128C23.1246 22.3128 23.0841 22.3128 23.0503 22.3196C22.9421 22.3196 22.8407 22.3196 22.7393 22.3331C21.8944 22.4074 21.1103 22.6981 20.4546 23.1578C20.3937 23.1983 20.3329 23.2456 20.2721 23.2997L23.3342 26.3618L21.8133 27.8895L17.9535 24.0297L17.1356 23.2118L17.8927 20.9136L17.9738 20.6702L18.7444 18.3314L18.8188 18.1016H21.3807L20.752 20.0145L20.6709 20.2579L20.6303 20.3796C20.6709 20.366 20.7114 20.3525 20.752 20.339C20.8264 20.3052 20.9075 20.2782 20.9886 20.2511C21.6713 20.0348 22.4081 19.9199 23.1652 19.9199C27.1196 19.9199 30.3304 23.124 30.3304 27.0783C30.3304 27.8354 30.2087 28.5722 29.9924 29.2549C29.9654 29.336 29.9383 29.4172 29.9113 29.4983C29.695 30.0864 29.4111 30.6406 29.0528 31.1409L32 34.088H31.9932Z" fill="#3E8A8E"/>
<path d="M21.0895 17.2767C22.0602 17.2767 22.847 16.4899 22.847 15.5192C22.847 14.5486 22.0602 13.7617 21.0895 13.7617C20.1189 13.7617 19.332 14.5486 19.332 15.5192C19.332 16.4899 20.1189 17.2767 21.0895 17.2767Z" fill="#3E8A8E"/>
</svg>
