<svg width="36" height="37" viewBox="0 0 36 37" fill="none" xmlns="http://www.w3.org/2000/svg">
<path d="M16.3328 24.1634C16.1381 24.1638 15.9494 24.096 15.7995 23.9718C15.6291 23.8305 15.5219 23.6272 15.5016 23.4067C15.4812 23.1863 15.5495 22.9668 15.6912 22.7968L19.4245 18.3301L15.8245 13.8551C15.6847 13.6829 15.6193 13.4621 15.6428 13.2416C15.6662 13.0211 15.7766 12.819 15.9495 12.6801C16.1238 12.5267 16.3542 12.453 16.5852 12.4767C16.8161 12.5005 17.0267 12.6195 17.1662 12.8051L21.1912 17.8051C21.4439 18.1126 21.4439 18.5559 21.1912 18.8634L17.0245 23.8634C16.855 24.068 16.598 24.1794 16.3328 24.1634Z" fill="#637381"/>
</svg>
