<svg width="32" height="33" viewBox="0 0 32 33" fill="none" xmlns="http://www.w3.org/2000/svg">
<path fill-rule="evenodd" clip-rule="evenodd" d="M12.3904 23.07C12.1404 22.8199 12 22.4808 12 22.1273C12 21.7737 12.1404 21.4347 12.3904 21.1846L16.781 16.794L12.3904 12.4033C12.1475 12.1518 12.0131 11.815 12.0161 11.4654C12.0192 11.1158 12.1594 10.7814 12.4066 10.5342C12.6538 10.287 12.9883 10.1468 13.3378 10.1437C13.6874 10.1407 14.0242 10.2751 14.2757 10.518L19.609 15.8513C19.859 16.1013 19.9994 16.4404 19.9994 16.794C19.9994 17.1475 19.859 17.4866 19.609 17.7366L14.2757 23.07C14.0257 23.3199 13.6866 23.4603 13.333 23.4603C12.9795 23.4603 12.6404 23.3199 12.3904 23.07Z" fill="white"/>
</svg>
