<svg width="16" height="16" viewBox="0 0 16 16" fill="none" xmlns="http://www.w3.org/2000/svg">
    <path fill-rule="evenodd" clip-rule="evenodd" d="M7.99523 8.93906L11.7647 12.7088C11.8904 12.8302 12.0587 12.8974 12.2334 12.8959C12.4082 12.8944 12.5753 12.8243 12.6988 12.7007C12.8224 12.5772 12.8925 12.41 12.894 12.2353C12.8955 12.0606 12.8283 11.8922 12.707 11.7666L8.93744 7.99678L12.707 4.227C12.8283 4.10132 12.8955 3.93298 12.894 3.75826C12.8925 3.58353 12.8224 3.41639 12.6988 3.29284C12.5753 3.16928 12.4082 3.0992 12.2334 3.09768C12.0587 3.09616 11.8904 3.16333 11.7647 3.28472L7.99523 7.0545L4.22572 3.28472C4.09948 3.16633 3.93213 3.10171 3.7591 3.10452C3.58606 3.10733 3.4209 3.17735 3.29857 3.29978C3.17624 3.4222 3.10634 3.58742 3.10365 3.76047C3.10096 3.93352 3.1657 4.10083 3.28417 4.227L7.05302 7.99678L3.28351 11.7666C3.21986 11.828 3.1691 11.9016 3.13418 11.9829C3.09925 12.0642 3.08087 12.1516 3.0801 12.2401C3.07933 12.3286 3.09619 12.4163 3.1297 12.4982C3.1632 12.5801 3.21268 12.6545 3.27525 12.7171C3.33781 12.7797 3.41221 12.8291 3.4941 12.8627C3.57599 12.8962 3.66374 12.913 3.75221 12.9123C3.84069 12.9115 3.92813 12.8931 4.00942 12.8582C4.09072 12.8233 4.16425 12.7725 4.22572 12.7088L7.99523 8.93906Z" fill="white"/>
</svg>
