<svg width="24" height="25" viewBox="0 0 24 25" fill="none" xmlns="http://www.w3.org/2000/svg">
<g clip-path="url(#clip0_3277_4563)">
<path d="M22.6795 1.8534C21.7996 0.973322 20.7395 0.533203 19.5001 0.533203H4.49997C3.2605 0.533203 2.20043 0.973322 1.32019 1.8534C0.440119 2.73363 0 3.79365 0 5.03318V20.0331C0 21.2725 0.440119 22.3327 1.32019 23.2129C2.20043 24.0931 3.2605 24.5333 4.49997 24.5333H19.4999C20.7394 24.5333 21.7995 24.0931 22.6793 23.2129C23.5596 22.3327 23.9997 21.2726 23.9997 20.0331V5.03318C23.9996 3.79365 23.5595 2.73363 22.6795 1.8534ZM9.93754 14.8769C9.29159 15.5229 8.51052 15.8459 7.59372 15.8459C6.67703 15.8459 5.89585 15.5229 5.25001 14.8769C4.60428 14.2311 4.28128 13.45 4.28128 12.5331C4.28128 11.6162 4.60406 10.8351 5.25001 10.1893C5.89569 9.54349 6.67703 9.22049 7.59372 9.22049C8.51046 9.22049 9.29153 9.54349 9.93754 10.1893C10.5832 10.8351 10.9062 11.6162 10.9062 12.5331C10.9062 13.4496 10.5832 14.2311 9.93754 14.8769ZM18.7497 14.8769C18.1043 15.5229 17.3229 15.8459 16.406 15.8459C15.4894 15.8459 14.7081 15.5229 14.0619 14.8769C13.4165 14.2311 13.0933 13.45 13.0933 12.5331C13.0933 11.6162 13.4165 10.8351 14.0619 10.1893C14.7081 9.54349 15.4892 9.22049 16.406 9.22049C17.3225 9.22049 18.1039 9.54349 18.7497 10.1893C19.3954 10.8351 19.7187 11.6162 19.7187 12.5331C19.7187 13.4496 19.3954 14.2311 18.7497 14.8769Z" fill="white"/>
</g>
<defs>
<clipPath id="clip0_3277_4563">
<rect width="24" height="24" fill="white" transform="translate(0 0.533203)"/>
</clipPath>
</defs>
</svg>
