<svg width="24" height="25" viewBox="0 0 24 25" fill="none" xmlns="http://www.w3.org/2000/svg">
<path d="M17.5 7.02368H17.51M7 2.52368H17C19.7614 2.52368 22 4.76226 22 7.52368V17.5237C22 20.2851 19.7614 22.5237 17 22.5237H7C4.23858 22.5237 2 20.2851 2 17.5237V7.52368C2 4.76226 4.23858 2.52368 7 2.52368ZM16 11.8937C16.1234 12.7259 15.9813 13.5759 15.5938 14.3227C15.2063 15.0695 14.5931 15.6751 13.8416 16.0534C13.0901 16.4316 12.2384 16.5633 11.4078 16.4296C10.5771 16.2959 9.80976 15.9038 9.21484 15.3088C8.61992 14.7139 8.22773 13.9466 8.09407 13.1159C7.9604 12.2852 8.09207 11.4336 8.47033 10.6821C8.84859 9.93054 9.45419 9.31742 10.201 8.92992C10.9478 8.54242 11.7978 8.40027 12.63 8.52368C13.4789 8.64957 14.2649 9.04515 14.8717 9.65199C15.4785 10.2588 15.8741 11.0448 16 11.8937Z" stroke="white" stroke-width="2" stroke-linecap="round" stroke-linejoin="round"/>
</svg>
