<svg width="24" height="25" viewBox="0 0 24 25" fill="none" xmlns="http://www.w3.org/2000/svg">
<path d="M17.1189 18.7332C19.4623 17.1482 21 14.5111 21 11.5181C21 6.66645 16.9704 2.73315 12 2.73315C7.02958 2.73315 3 6.66645 3 11.5181C3 14.5111 4.53771 17.1482 6.88113 18.7332M8.35967 14.7332C7.51875 13.8832 7 12.7418 7 11.4837C7 8.86026 9.23881 6.73315 12 6.73315C14.7612 6.73315 17 8.86026 17 11.4837C17 12.7427 16.4813 13.8832 15.6403 14.7332M12 22.7332C10.8954 22.7332 10 21.8377 10 20.7332V18.7332C10 17.6286 10.8954 16.7332 12 16.7332C13.1046 16.7332 14 17.6286 14 18.7332V20.7332C14 21.8377 13.1046 22.7332 12 22.7332ZM13 11.7332C13 12.2854 12.5523 12.7332 12 12.7332C11.4477 12.7332 11 12.2854 11 11.7332C11 11.1809 11.4477 10.7332 12 10.7332C12.5523 10.7332 13 11.1809 13 11.7332Z" stroke="white" stroke-width="2" stroke-linecap="round" stroke-linejoin="round"/>
</svg>
