<svg width="32" height="33" viewBox="0 0 32 33" fill="none" xmlns="http://www.w3.org/2000/svg">
    <path fill-rule="evenodd" clip-rule="evenodd"
          d="M12.3904 23.0127C12.1404 22.7627 12 22.4236 12 22.07C12 21.7165 12.1404 21.3774 12.3904 21.1274L16.781 16.7367L12.3904 12.346C12.1475 12.0946 12.0131 11.7578 12.0161 11.4082C12.0192 11.0586 12.1594 10.7242 12.4066 10.477C12.6538 10.2297 12.9883 10.0895 13.3378 10.0865C13.6874 10.0834 14.0242 10.2178 14.2757 10.4607L19.609 15.794C19.859 16.0441 19.9994 16.3832 19.9994 16.7367C19.9994 17.0903 19.859 17.4293 19.609 17.6794L14.2757 23.0127C14.0257 23.2627 13.6866 23.4031 13.333 23.4031C12.9795 23.4031 12.6404 23.2627 12.3904 23.0127Z"
          fill="#3E8A8E"/>
</svg>
