<svg width="24" height="25" viewBox="0 0 24 25" fill="none" xmlns="http://www.w3.org/2000/svg">
<path d="M15.15 8.92368C13.6021 8.91837 12.1155 9.52888 11.0182 10.6206C9.92079 11.7124 9.30265 13.1957 9.3 14.7437V20.6237C9.3 20.8624 9.39482 21.0913 9.5636 21.2601C9.73239 21.4289 9.96131 21.5237 10.2 21.5237H12.3C12.7971 21.5237 13.2 21.1207 13.2 20.6237V14.7437C13.1996 14.1924 13.4338 13.6669 13.8441 13.2986C14.2543 12.9303 14.8019 12.754 15.35 12.8137C16.356 12.9404 17.1079 13.7998 17.1 14.8137V20.6237C17.1 21.1207 17.5029 21.5237 18 21.5237H20.1C20.5971 21.5237 21 21.1207 21 20.6237V14.7437C20.9974 13.1957 20.3792 11.7124 19.2818 10.6206C18.1845 9.52888 16.6979 8.91837 15.15 8.92368Z" fill="white"/>
<path d="M3 10.7237C3 10.2266 3.40294 9.82368 3.9 9.82368H6.6C7.09706 9.82368 7.5 10.2266 7.5 10.7237V20.6237C7.5 21.1207 7.09706 21.5237 6.6 21.5237H3.9C3.40294 21.5237 3 21.1207 3 20.6237V10.7237Z" fill="white"/>
<path d="M7.5 5.77368C7.5 7.01632 6.49264 8.02368 5.25 8.02368C4.00736 8.02368 3 7.01632 3 5.77368C3 4.53104 4.00736 3.52368 5.25 3.52368C6.49264 3.52368 7.5 4.53104 7.5 5.77368Z" fill="white"/>
</svg>
