<svg width="25" height="25" viewBox="0 0 25 25" fill="none" xmlns="http://www.w3.org/2000/svg">
<path d="M22.0813 7.93304C21.9733 7.50162 21.7534 7.10633 21.4438 6.78711C21.1341 6.46788 20.7457 6.23602 20.3178 6.11495C18.7542 5.73315 12.5 5.73315 12.5 5.73315C12.5 5.73315 6.24578 5.73315 4.68222 6.15131C4.25429 6.27239 3.86588 6.50424 3.55623 6.82347C3.24659 7.14269 3.02666 7.53798 2.91868 7.9694C2.63253 9.55619 2.49255 11.1659 2.50052 12.7782C2.49032 14.4027 2.6303 16.0247 2.91868 17.6234C3.03773 18.0415 3.26258 18.4217 3.5715 18.7275C3.88043 19.0332 4.26299 19.2541 4.68222 19.3688C6.24578 19.787 12.5 19.787 12.5 19.787C12.5 19.787 18.7542 19.787 20.3178 19.3688C20.7457 19.2477 21.1341 19.0159 21.4438 18.6967C21.7534 18.3774 21.9733 17.9821 22.0813 17.5507C22.3653 15.9759 22.5052 14.3785 22.4995 12.7782C22.5097 11.1537 22.3697 9.53177 22.0813 7.93304Z" stroke="white" stroke-width="2" stroke-linecap="round" stroke-linejoin="round"/>
<path d="M10.25 10.1985C10.25 9.7212 10.25 9.48256 10.3497 9.34933C10.4367 9.23323 10.5697 9.16059 10.7144 9.15026C10.8804 9.1384 11.0811 9.26745 11.4826 9.52554L15.4254 12.0602C15.7738 12.2842 15.948 12.3962 16.0082 12.5385C16.0607 12.663 16.0607 12.8033 16.0082 12.9278C15.948 13.0702 15.7738 13.1821 15.4254 13.4061L11.4826 15.9408C11.0811 16.1989 10.8804 16.3279 10.7144 16.3161C10.5697 16.3057 10.4367 16.2331 10.3497 16.117C10.25 15.9837 10.25 15.7451 10.25 15.2678V10.1985Z" stroke="white" stroke-width="2" stroke-linecap="round" stroke-linejoin="round"/>
</svg>
