<svg width="72" height="73" viewBox="0 0 72 73" fill="none" xmlns="http://www.w3.org/2000/svg">
<path fill-rule="evenodd" clip-rule="evenodd" d="M36 60.2468C42.3652 60.2468 48.4697 57.7183 52.9706 53.2174C57.4714 48.7165 60 42.612 60 36.2468C60 29.8816 57.4714 23.7771 52.9706 19.2763C48.4697 14.7754 42.3652 12.2468 36 12.2468C29.6348 12.2468 23.5303 14.7754 19.0294 19.2763C14.5286 23.7771 12 29.8816 12 36.2468C12 42.612 14.5286 48.7165 19.0294 53.2174C23.5303 57.7183 29.6348 60.2468 36 60.2468V60.2468ZM34.665 27.7508C34.2132 27.4494 33.688 27.2763 33.1455 27.2499C32.6031 27.2236 32.0636 27.345 31.5847 27.6012C31.1058 27.8574 30.7055 28.2389 30.4264 28.7048C30.1473 29.1707 29.9999 29.7037 30 30.2468V42.2468C29.9999 42.79 30.1473 43.3229 30.4264 43.7889C30.7055 44.2548 31.1058 44.6362 31.5847 44.8924C32.0636 45.1487 32.6031 45.2701 33.1455 45.2437C33.688 45.2174 34.2132 45.0443 34.665 44.7428L43.665 38.7428C44.0759 38.4689 44.4128 38.0977 44.6458 37.6623C44.8788 37.2269 45.0007 36.7407 45.0007 36.2468C45.0007 35.753 44.8788 35.2668 44.6458 34.8314C44.4128 34.396 44.0759 34.0248 43.665 33.7508L34.665 27.7508V27.7508Z" fill="#F8F9FC"/>
</svg>

