<svg width="24" height="25" viewBox="0 0 24 25" fill="none" xmlns="http://www.w3.org/2000/svg">
<path d="M12 22.7332C17.5228 22.7332 22 18.256 22 12.7332C22 7.21031 17.5228 2.73315 12 2.73315C6.47715 2.73315 2 7.21031 2 12.7332C2 18.256 6.47715 22.7332 12 22.7332Z" stroke="white" stroke-width="2" stroke-linecap="round" stroke-linejoin="round"/>
<path d="M9.5 9.69849C9.5 9.2212 9.5 8.98256 9.59974 8.84933C9.68666 8.73323 9.81971 8.66059 9.96438 8.65026C10.1304 8.6384 10.3311 8.76745 10.7326 9.02554L15.4532 12.0602C15.8016 12.2842 15.9758 12.3962 16.0359 12.5385C16.0885 12.663 16.0885 12.8033 16.0359 12.9278C15.9758 13.0702 15.8016 13.1821 15.4532 13.4061L10.7326 16.4408C10.3311 16.6989 10.1304 16.8279 9.96438 16.8161C9.81971 16.8057 9.68666 16.7331 9.59974 16.617C9.5 16.4837 9.5 16.2451 9.5 15.7678V9.69849Z" stroke="white" stroke-width="2" stroke-linecap="round" stroke-linejoin="round"/>
</svg>
