<svg width="64" height="65" viewBox="0 0 64 65" fill="none" xmlns="http://www.w3.org/2000/svg">
<path d="M58.6673 56.7332V51.3998C58.6673 46.4296 55.2679 42.2533 50.6673 41.0692M41.334 9.50851C45.2431 11.0909 48.0007 14.9233 48.0007 19.3998C48.0007 23.8763 45.2431 27.7088 41.334 29.2911M45.334 56.7332C45.334 51.7631 45.334 49.2781 44.522 47.3179C43.4394 44.7042 41.3629 42.6277 38.7493 41.5451C36.7891 40.7332 34.304 40.7332 29.334 40.7332H21.334C16.3639 40.7332 13.8789 40.7332 11.9187 41.5451C9.30506 42.6277 7.22854 44.7042 6.14594 47.3179C5.33398 49.2781 5.33398 51.7631 5.33398 56.7332M36.0007 19.3998C36.0007 25.2909 31.225 30.0665 25.334 30.0665C19.4429 30.0665 14.6673 25.2909 14.6673 19.3998C14.6673 13.5088 19.4429 8.73315 25.334 8.73315C31.225 8.73315 36.0007 13.5088 36.0007 19.3998Z" stroke="white" stroke-width="2" stroke-linecap="round" stroke-linejoin="round"/>
</svg>
