<svg width="24" height="25" viewBox="0 0 24 25" fill="none" xmlns="http://www.w3.org/2000/svg">
<g clip-path="url(#clip0_3277_4566)">
<path d="M12 24.5332C18.6274 24.5332 24 19.1606 24 12.5332C24 5.90579 18.6274 0.533203 12 0.533203C5.37258 0.533203 0 5.90579 0 12.5332C0 19.1606 5.37258 24.5332 12 24.5332Z" fill="white"/>
<path d="M16.3348 16.9683C16.2397 17.1308 16.0841 17.2488 15.9021 17.2966C15.7201 17.3445 15.5265 17.3181 15.3639 17.2233C13.4971 16.1324 11.3412 15.9579 9.86025 15.996C8.89829 16.0207 7.94162 16.1468 7.00616 16.3724C6.832 16.4032 6.6526 16.368 6.50305 16.2736C6.35349 16.1791 6.24454 16.0323 6.19748 15.8618C6.15043 15.6914 6.16866 15.5094 6.24861 15.3517C6.32856 15.1939 6.46448 15.0716 6.62979 15.0088C7.66038 14.7526 8.71555 14.6081 9.77706 14.5779C10.793 14.5404 11.8099 14.614 12.8098 14.7974C13.9609 15.0058 15.0678 15.4098 16.0825 15.992C16.1636 16.0391 16.2345 16.1019 16.2911 16.1767C16.3478 16.2514 16.389 16.3367 16.4125 16.4275C16.4359 16.5183 16.4412 16.6128 16.4278 16.7057C16.4145 16.7985 16.3829 16.8878 16.3348 16.9683Z" fill="#102A4D"/>
<path d="M17.655 14.2268C17.581 14.3539 17.4749 14.4593 17.3473 14.5325C17.2198 14.6057 17.0752 14.6442 16.9282 14.644C16.7789 14.6443 16.6324 14.6042 16.5041 14.5281C14.2936 13.2368 11.7409 13.0281 9.98589 13.0827C8.84649 13.1115 7.71334 13.261 6.60544 13.5286C6.39351 13.5785 6.17049 13.5443 5.98325 13.4331C5.79602 13.322 5.65915 13.1426 5.60141 12.9327C5.54368 12.7228 5.56957 12.4986 5.67365 12.3074C5.77773 12.1162 5.95189 11.9727 6.15953 11.9072C7.38043 11.6051 8.63043 11.4359 9.88771 11.4027C11.0914 11.3563 12.2965 11.4437 13.4809 11.6631C14.8432 11.9101 16.1531 12.3889 17.3536 13.0786C17.5454 13.1913 17.6848 13.3753 17.7413 13.5905C17.7978 13.8056 17.7668 14.0344 17.655 14.2268Z" fill="#102A4D"/>
<path d="M19.3634 11.2224C19.2952 11.3395 19.2045 11.442 19.0966 11.5241C18.9887 11.6061 18.8656 11.666 18.7345 11.7003C18.6033 11.7346 18.4667 11.7427 18.3324 11.7241C18.1982 11.7055 18.0689 11.6606 17.952 11.5919C12.6966 8.52102 5.87976 10.3469 5.81566 10.3647C5.68319 10.4066 5.5436 10.4214 5.40528 10.4081C5.26695 10.3948 5.13273 10.3538 5.01066 10.2874C4.88859 10.2209 4.78119 10.1306 4.69488 10.0217C4.60858 9.91274 4.54516 9.78752 4.50842 9.65351C4.47167 9.51949 4.46237 9.37943 4.48106 9.24173C4.49975 9.10403 4.54605 8.97152 4.61718 8.85215C4.68832 8.73277 4.78283 8.62899 4.89504 8.54702C5.00725 8.46505 5.13486 8.40658 5.27021 8.37511C6.76417 8.0069 8.29345 7.80071 9.83157 7.76011C11.3075 7.7051 12.7849 7.81211 14.2375 8.0792C15.908 8.37957 17.5148 8.96344 18.9884 9.80556C19.1064 9.87358 19.2099 9.9643 19.2927 10.0725C19.3755 10.1807 19.4361 10.3042 19.471 10.4359C19.5058 10.5676 19.5143 10.7049 19.4958 10.8399C19.4773 10.9749 19.4323 11.1049 19.3634 11.2224Z" fill="#102A4D"/>
</g>
<defs>
<clipPath id="clip0_3277_4566">
<rect width="24" height="24" fill="white" transform="translate(0 0.533203)"/>
</clipPath>
</defs>
</svg>
