<svg width="24" height="25" viewBox="0 0 24 25" fill="none" xmlns="http://www.w3.org/2000/svg">
<path d="M22 6.33195C21.2563 6.6582 20.4637 6.87445 19.6375 6.97945C20.4875 6.47195 21.1363 5.67445 21.4412 4.7132C20.6488 5.1857 19.7738 5.51945 18.8412 5.7057C18.0887 4.90445 17.0162 4.4082 15.8462 4.4082C13.5763 4.4082 11.7487 6.2507 11.7487 8.50945C11.7487 8.83445 11.7762 9.14695 11.8438 9.44445C8.435 9.2782 5.41875 7.64445 3.3925 5.1557C3.03875 5.76945 2.83125 6.47195 2.83125 7.2282C2.83125 8.6482 3.5625 9.90695 4.6525 10.6357C3.99375 10.6232 3.3475 10.432 2.8 10.1307C2.8 10.1432 2.8 10.1595 2.8 10.1757C2.8 12.1682 4.22125 13.8232 6.085 14.2045C5.75125 14.2957 5.3875 14.3395 5.01 14.3395C4.7475 14.3395 4.4825 14.3245 4.23375 14.2695C4.765 15.8932 6.2725 17.087 8.065 17.1257C6.67 18.217 4.89875 18.8745 2.98125 18.8745C2.645 18.8745 2.3225 18.8595 2 18.8182C3.81625 19.9895 5.96875 20.6582 8.29 20.6582C15.835 20.6582 19.96 14.4082 19.96 8.9907C19.96 8.80945 19.9538 8.63445 19.945 8.4607C20.7588 7.8832 21.4425 7.16195 22 6.33195Z" fill="white"/>
</svg>
