<svg width="32" height="33" viewBox="0 0 32 33" fill="none" xmlns="http://www.w3.org/2000/svg">
    <path fill-rule="evenodd" clip-rule="evenodd"
          d="M12.3904 22.993C12.1404 22.743 12 22.4039 12 22.0503C12 21.6968 12.1404 21.3577 12.3904 21.1077L16.781 16.717L12.3904 12.3263C12.1475 12.0749 12.0131 11.7381 12.0161 11.3885C12.0192 11.0389 12.1594 10.7044 12.4066 10.4572C12.6538 10.21 12.9883 10.0698 13.3378 10.0668C13.6874 10.0637 14.0242 10.1981 14.2757 10.441L19.609 15.7743C19.859 16.0244 19.9994 16.3634 19.9994 16.717C19.9994 17.0705 19.859 17.4096 19.609 17.6597L14.2757 22.993C14.0257 23.243 13.6866 23.3834 13.333 23.3834C12.9795 23.3834 12.6404 23.243 12.3904 22.993Z"
          fill="white"/>
</svg>
