<svg width="24" height="25" viewBox="0 0 24 25" fill="none" xmlns="http://www.w3.org/2000/svg">
<path d="M22.5401 6.9532C22.4213 6.47861 22.1794 6.04377 21.8387 5.69261C21.4981 5.34144 21.0708 5.08639 20.6001 4.9532C18.8801 4.5332 12.0001 4.5332 12.0001 4.5332C12.0001 4.5332 5.12008 4.5332 3.40008 4.9932C2.92933 5.12639 2.50206 5.38144 2.16143 5.73261C1.8208 6.08377 1.57887 6.51861 1.46008 6.9932C1.1453 8.73876 0.991319 10.5095 1.00008 12.2832C0.988863 14.0702 1.14285 15.8545 1.46008 17.6132C1.59104 18.0731 1.83839 18.4913 2.17823 18.8277C2.51806 19.164 2.9389 19.407 3.40008 19.5332C5.12008 19.9932 12.0001 19.9932 12.0001 19.9932C12.0001 19.9932 18.8801 19.9932 20.6001 19.5332C21.0708 19.4 21.4981 19.145 21.8387 18.7938C22.1794 18.4426 22.4213 18.0078 22.5401 17.5332C22.8524 15.8008 23.0064 14.0435 23.0001 12.2832C23.0113 10.4962 22.8573 8.7119 22.5401 6.9532Z" stroke="white" stroke-width="2" stroke-linecap="round" stroke-linejoin="round"/>
<path d="M9.75008 15.5532L15.5001 12.2832L9.75008 9.0132V15.5532Z" stroke="white" stroke-width="2" stroke-linecap="round" stroke-linejoin="round"/>
</svg>
